<?xml version="1.0" standalone="no"?>
<svg xmlns="http://www.w3.org/2000/svg" viewBox="0 0 1440 320">
<path fill="#ad07f1" fill-opacity="0.6" d="M0,224L40,197.3C80,171,160,117,240,101.3C320,85,400,107,480,138.7C560,171,640,213,720,218.7C800,224,880,192,960,154.7C1040,117,1120,75,1200,48C1280,21,1360,11,1400,5.3L1440,0L1440,320L1400,320C1360,320,1280,320,1100,320C1120,320,1040,320,960,320C880,320,800,320,720,320C640,320,560,320,480,320C400,320,320,320,240,320C160,320,80,320,40,320L0,320Z"></path><path fill="#ad3ef1" fill-opacity="0.4" d="M0,32L34.3,37.3C68.6,43,137,53,206,80C274.3,107,343,149,411,176C480,203,549,213,617,213.3C685.7,213,754,203,823,186.7C891.4,171,960,149,1029,122.7C1097.1,96,1166,64,1234,53.3C1302.9,43,1371,53,1406,58.7L1440,64L1440,320L1405.7,320C1371.4,320,1303,320,1234,320C1165.7,320,1097,320,1029,320C960,320,891,320,823,320C754.3,320,686,320,617,320C548.6,320,480,320,411,320C342.9,320,274,320,206,320C137.1,320,69,320,34,320L0,320Z"></path>
</svg>