<?xml version="1.0" standalone="no"?><svg xmlns="http://www.w3.org/2000/svg" viewBox="0 0 1440 320"><path fill="mediumvioletred" fill-opacity="1" d="M0,224L40,197.3C80,171,160,117,240,101.3C320,85,400,107,480,138.7C560,171,640,213,720,218.7C800,224,880,192,960,154.7C1040,117,1120,75,1200,48C1280,21,1360,11,1400,5.3L1440,0L1440,320L1400,320C1360,320,1280,320,1200,320C1120,320,1040,320,960,320C880,320,800,320,720,320C640,320,560,320,480,320C400,320,320,320,240,320C160,320,80,320,40,320L0,320Z"></path></svg>